<svg width="772" height="185" viewBox="0 0 772 185" fill="none" xmlns="http://www.w3.org/2000/svg">
<path d="M52.36 42.08C52.36 28.48 41.48 17.6 27.88 17.6C14.28 17.6 3.4 28.48 3.4 42.08V66.56C3.4 69.535 5.865 72 8.84 72C11.815 72 14.28 69.535 14.28 66.56V55.68H41.48V66.56C41.48 69.535 43.945 72 46.92 72C49.895 72 52.36 69.535 52.36 66.56V42.08ZM14.28 42.08C14.28 34.6 20.4 28.48 27.88 28.48C35.36 28.48 41.48 34.6 41.48 42.08V44.8H14.28V42.08ZM61.9013 28.48C58.9263 28.48 56.4613 30.945 56.4613 33.92C56.4613 36.895 58.9263 39.36 61.9013 39.36H65.9813V55.68C65.9813 64.775 73.2063 72 82.3013 72H85.0213C87.9963 72 90.4613 69.535 90.4613 66.56C90.4613 63.585 87.9963 61.12 85.0213 61.12H82.3013C79.3263 61.12 76.8613 58.655 76.8613 55.68V39.36H85.0213C87.9963 39.36 90.4613 36.895 90.4613 33.92C90.4613 30.945 87.9963 28.48 85.0213 28.48H76.8613V23.04C76.8613 20.065 74.3963 17.6 71.4213 17.6C68.4463 17.6 65.9813 20.065 65.9813 23.04V28.48H61.9013ZM92.5026 50.24C92.5026 62.225 102.278 72 114.263 72C118.173 72 121.743 71.065 124.973 69.11C125.993 71.235 128.118 72.68 130.583 72.68C133.983 72.68 136.703 69.96 136.703 66.56C136.703 64.095 135.258 61.97 133.133 61.035C134.918 57.72 136.023 54.235 136.023 50.24C136.023 38.255 126.248 28.48 114.263 28.48C102.278 28.48 92.5026 38.255 92.5026 50.24ZM103.383 50.24C103.383 44.205 108.228 39.36 114.263 39.36C120.298 39.36 125.143 44.205 125.143 50.24C125.143 56.275 120.298 61.12 114.263 61.12C108.228 61.12 103.383 56.275 103.383 50.24ZM184.011 37.745C185.116 36.64 185.626 35.365 185.626 33.92C185.626 30.945 183.161 28.48 180.186 28.48C178.741 28.48 177.466 28.99 176.361 30.095L152.986 53.47V17.6C152.986 14.625 150.521 12.16 147.546 12.16C144.571 12.16 142.106 14.625 142.106 17.6V66.56C142.106 69.535 144.571 72 147.546 72C148.906 72 150.351 71.49 151.371 70.385L163.866 57.89L176.361 70.385C177.381 71.49 178.826 72 180.186 72C183.161 72 185.626 69.535 185.626 66.56C185.626 65.2 185.116 63.755 184.011 62.735L171.516 50.24L184.011 37.745ZM260.225 44.8C260.225 41.825 257.76 39.36 254.785 39.36H244.84C241.865 39.36 239.4 41.825 239.4 44.8C239.4 47.775 241.865 50.24 244.84 50.24H249.345V57.805C246.37 60.1 242.885 61.12 239.4 61.12C230.305 61.12 223.08 53.895 223.08 44.8C223.08 35.705 230.305 28.48 239.4 28.48C243.565 28.48 247.815 29.925 250.96 33.24C251.98 34.345 253.255 34.855 254.785 34.855C257.76 34.855 260.225 32.39 260.225 29.415C260.225 27.97 259.715 26.695 258.61 25.59C253.17 20.235 246.455 17.6 239.4 17.6C224.355 17.6 212.2 29.755 212.2 44.8C212.2 59.845 224.355 72 239.4 72C242.885 72 246.37 71.32 249.685 69.96C250.875 71.745 252.575 72.68 254.785 72.68C258.185 72.68 260.905 69.96 260.905 66.56C260.905 65.2 260.48 63.925 259.545 62.735C259.97 61.97 260.225 61.12 260.225 60.185V44.8ZM278.162 17.6C278.162 14.625 275.697 12.16 272.722 12.16C269.747 12.16 267.282 14.625 267.282 17.6V66.56C267.282 69.535 269.747 72 272.722 72C275.697 72 278.162 69.535 278.162 66.56V17.6ZM282.923 50.24C282.923 62.225 292.698 72 304.683 72C316.668 72 326.442 62.225 326.442 50.24C326.442 38.255 316.668 28.48 304.683 28.48C292.698 28.48 282.923 38.255 282.923 50.24ZM293.803 50.24C293.803 44.205 298.648 39.36 304.683 39.36C310.718 39.36 315.563 44.205 315.563 50.24C315.563 56.275 310.718 61.12 304.683 61.12C298.648 61.12 293.803 56.275 293.803 50.24ZM331.198 50.24C331.198 54.235 332.218 57.805 334.003 60.95C331.878 61.885 330.433 64.095 330.433 66.56C330.433 69.96 333.153 72.68 336.553 72.68C339.018 72.68 341.143 71.235 342.078 69.11C345.393 71.065 349.048 72 352.958 72C364.943 72 374.718 62.225 374.718 50.24C374.718 38.255 364.943 28.48 352.958 28.48C348.963 28.48 345.223 29.5 342.078 31.455V17.6C342.078 14.625 339.613 12.16 336.638 12.16C333.663 12.16 331.198 14.625 331.198 17.6V50.24ZM342.078 50.24C342.078 44.205 346.923 39.36 352.958 39.36C358.993 39.36 363.838 44.205 363.838 50.24C363.838 56.275 358.993 61.12 352.958 61.12C346.923 61.12 342.078 56.275 342.078 50.24ZM377.468 50.24C377.468 62.225 387.243 72 399.228 72C403.138 72 406.708 71.065 409.938 69.11C410.958 71.235 413.083 72.68 415.548 72.68C418.948 72.68 421.668 69.96 421.668 66.56C421.668 64.095 420.223 61.97 418.098 61.035C419.883 57.72 420.988 54.235 420.988 50.24C420.988 38.255 411.213 28.48 399.228 28.48C387.243 28.48 377.468 38.255 377.468 50.24ZM388.348 50.24C388.348 44.205 393.193 39.36 399.228 39.36C405.263 39.36 410.108 44.205 410.108 50.24C410.108 56.275 405.263 61.12 399.228 61.12C393.193 61.12 388.348 56.275 388.348 50.24ZM437.952 17.6C437.952 14.625 435.487 12.16 432.512 12.16C429.537 12.16 427.072 14.625 427.072 17.6V66.56C427.072 69.535 429.537 72 432.512 72C435.487 72 437.952 69.535 437.952 66.56V17.6ZM497.832 52.96C499.192 52.96 500.637 52.45 501.657 51.345L516.872 36.13V66.56C516.872 69.535 519.337 72 522.312 72C525.287 72 527.752 69.535 527.752 66.56V23.04C527.752 20.065 525.287 17.6 522.312 17.6C520.867 17.6 519.592 18.11 518.487 19.215L497.832 39.87L477.177 19.215C476.072 18.11 474.797 17.6 473.352 17.6C470.377 17.6 467.912 20.065 467.912 23.04V66.56C467.912 69.535 470.377 72 473.352 72C476.327 72 478.792 69.535 478.792 66.56V36.13L494.007 51.345C495.027 52.45 496.472 52.96 497.832 52.96ZM532.527 50.24C532.527 62.225 542.302 72 554.287 72C566.272 72 576.047 62.225 576.047 50.24C576.047 38.255 566.272 28.48 554.287 28.48C542.302 28.48 532.527 38.255 532.527 50.24ZM543.407 50.24C543.407 44.205 548.252 39.36 554.287 39.36C560.322 39.36 565.167 44.205 565.167 50.24C565.167 56.275 560.322 61.12 554.287 61.12C548.252 61.12 543.407 56.275 543.407 50.24ZM622.282 17.6C622.282 14.625 619.817 12.16 616.842 12.16C613.867 12.16 611.402 14.625 611.402 17.6V31.455C608.087 29.5 604.517 28.48 600.522 28.48C588.537 28.48 578.762 38.255 578.762 50.24C578.762 62.225 588.537 72 600.522 72C604.432 72 608.002 71.065 611.232 69.11C612.252 71.235 614.377 72.68 616.842 72.68C620.242 72.68 622.962 69.96 622.962 66.56C622.962 64.095 621.517 61.97 619.392 61.035C621.177 57.72 622.282 54.235 622.282 50.24V17.6ZM611.402 50.24C611.402 56.275 606.557 61.12 600.522 61.12C594.487 61.12 589.642 56.275 589.642 50.24C589.642 44.205 594.487 39.36 600.522 39.36C606.557 39.36 611.402 44.205 611.402 50.24ZM671.273 33.92C671.273 30.945 668.808 28.48 665.833 28.48C662.858 28.48 660.393 30.945 660.393 33.92V50.24C660.393 56.275 655.548 61.12 649.513 61.12C643.478 61.12 638.633 56.275 638.633 50.24V33.92C638.633 30.945 636.168 28.48 633.193 28.48C630.218 28.48 627.753 30.945 627.753 33.92V50.24C627.753 62.225 637.528 72 649.513 72C653.423 72 656.993 71.065 660.223 69.11C661.243 71.235 663.368 72.68 665.833 72.68C669.233 72.68 671.953 69.96 671.953 66.56C671.953 64.095 670.508 61.97 668.383 61.035C670.168 57.72 671.273 54.235 671.273 50.24V33.92ZM688.968 17.6C688.968 14.625 686.503 12.16 683.528 12.16C680.553 12.16 678.088 14.625 678.088 17.6V66.56C678.088 69.535 680.553 72 683.528 72C686.503 72 688.968 69.535 688.968 66.56V17.6ZM693.728 50.24C693.728 62.225 703.503 72 715.488 72C719.398 72 722.968 71.065 726.198 69.11C727.218 71.235 729.343 72.68 731.808 72.68C735.208 72.68 737.928 69.96 737.928 66.56C737.928 64.095 736.483 61.97 734.358 61.035C736.143 57.72 737.248 54.235 737.248 50.24C737.248 38.255 727.473 28.48 715.488 28.48C703.503 28.48 693.728 38.255 693.728 50.24ZM704.608 50.24C704.608 44.205 709.453 39.36 715.488 39.36C721.523 39.36 726.368 44.205 726.368 50.24C726.368 56.275 721.523 61.12 715.488 61.12C709.453 61.12 704.608 56.275 704.608 50.24ZM742.652 33.92C742.652 36.385 744.097 38.51 746.222 39.53C744.267 42.76 743.332 46.33 743.332 50.24V66.56C743.332 69.535 745.797 72 748.772 72C751.747 72 754.212 69.535 754.212 66.56V50.24C754.212 44.205 759.057 39.36 765.092 39.36C768.067 39.36 770.532 36.895 770.532 33.92C770.532 30.945 768.067 28.48 765.092 28.48C761.097 28.48 757.612 29.585 754.297 31.37C753.362 29.245 751.237 27.8 748.772 27.8C745.372 27.8 742.652 30.52 742.652 33.92Z" fill="white"/>
<path d="M499.44 154.56C508.12 154.56 515.12 147.56 515.12 138.88C515.12 130.2 508.12 123.2 499.44 123.2H479.28C476.83 123.2 474.8 125.23 474.8 127.68V163.52C474.8 165.97 476.83 168 479.28 168C481.73 168 483.76 165.97 483.76 163.52V154.56H499.44ZM499.44 132.16C503.15 132.16 506.16 135.17 506.16 138.88C506.16 142.59 503.15 145.6 499.44 145.6H483.76V132.16H499.44ZM527.989 123.2C527.989 120.75 525.959 118.72 523.509 118.72C521.059 118.72 519.029 120.75 519.029 123.2V163.52C519.029 165.97 521.059 168 523.509 168C525.959 168 527.989 165.97 527.989 163.52V123.2ZM531.909 150.08C531.909 159.95 539.959 168 549.829 168C553.049 168 555.989 167.23 558.649 165.62C559.489 167.37 561.239 168.56 563.269 168.56C566.069 168.56 568.309 166.32 568.309 163.52C568.309 161.49 567.119 159.74 565.369 158.97C566.839 156.24 567.749 153.37 567.749 150.08C567.749 140.21 559.699 132.16 549.829 132.16C539.959 132.16 531.909 140.21 531.909 150.08ZM540.869 150.08C540.869 145.11 544.859 141.12 549.829 141.12C554.799 141.12 558.789 145.11 558.789 150.08C558.789 155.05 554.799 159.04 549.829 159.04C544.859 159.04 540.869 155.05 540.869 150.08ZM574.999 132.16C572.549 132.16 570.519 134.19 570.519 136.64C570.519 139.09 572.549 141.12 574.999 141.12H578.359V154.56C578.359 162.05 584.309 168 591.799 168H594.039C596.489 168 598.519 165.97 598.519 163.52C598.519 161.07 596.489 159.04 594.039 159.04H591.799C589.349 159.04 587.319 157.01 587.319 154.56V141.12H594.039C596.489 141.12 598.519 139.09 598.519 136.64C598.519 134.19 596.489 132.16 594.039 132.16H587.319V127.68C587.319 125.23 585.289 123.2 582.839 123.2C580.389 123.2 578.359 125.23 578.359 127.68V132.16H574.999ZM623.16 141.12C625.61 141.12 627.64 139.09 627.64 136.64C627.64 134.19 625.61 132.16 623.16 132.16H616.44C616.44 129.71 618.47 127.68 620.92 127.68H623.16C625.61 127.68 627.64 125.65 627.64 123.2C627.64 120.75 625.61 118.72 623.16 118.72H620.92C613.43 118.72 607.48 124.67 607.48 132.16H604.12C601.67 132.16 599.64 134.19 599.64 136.64C599.64 139.09 601.67 141.12 604.12 141.12H607.48V163.52C607.48 165.97 609.51 168 611.96 168C614.41 168 616.44 165.97 616.44 163.52V141.12H623.16ZM629.321 150.08C629.321 159.95 637.371 168 647.241 168C657.111 168 665.161 159.95 665.161 150.08C665.161 140.21 657.111 132.16 647.241 132.16C637.371 132.16 629.321 140.21 629.321 150.08ZM638.281 150.08C638.281 145.11 642.271 141.12 647.241 141.12C652.211 141.12 656.201 145.11 656.201 150.08C656.201 155.05 652.211 159.04 647.241 159.04C642.271 159.04 638.281 155.05 638.281 150.08ZM668.517 136.64C668.517 138.67 669.707 140.42 671.457 141.26C669.847 143.92 669.077 146.86 669.077 150.08V163.52C669.077 165.97 671.107 168 673.557 168C676.007 168 678.037 165.97 678.037 163.52V150.08C678.037 145.11 682.027 141.12 686.997 141.12C689.447 141.12 691.477 139.09 691.477 136.64C691.477 134.19 689.447 132.16 686.997 132.16C683.707 132.16 680.837 133.07 678.107 134.54C677.337 132.79 675.587 131.6 673.557 131.6C670.757 131.6 668.517 133.84 668.517 136.64ZM717.249 163.52C717.249 165.97 719.279 168 721.729 168C724.179 168 726.209 165.97 726.209 163.52V147.84C726.209 144.13 729.219 141.12 732.929 141.12C736.639 141.12 739.649 144.13 739.649 147.84V163.52C739.649 165.97 741.679 168 744.129 168C746.579 168 748.609 165.97 748.609 163.52V147.84C748.609 139.16 741.609 132.16 732.929 132.16C728.449 132.16 724.529 133.98 721.729 136.85C718.859 133.98 715.009 132.16 710.529 132.16C708.009 132.16 705.699 132.79 703.529 133.84C702.619 132.51 701.079 131.6 699.329 131.6C696.529 131.6 694.289 133.84 694.289 136.64C694.289 138.39 695.129 139.93 696.459 140.84C695.409 143.01 694.849 145.32 694.849 147.84V163.52C694.849 165.97 696.879 168 699.329 168C701.779 168 703.809 165.97 703.809 163.52V147.84C703.809 144.13 706.819 141.12 710.529 141.12C714.239 141.12 717.249 144.13 717.249 147.84V163.52Z" fill="white"/>
<path d="M736.96 117.08C736.96 118.13 737.83 119 738.88 119C739.93 119 740.8 118.13 740.8 117.08V103.64H745.6C746.65 103.64 747.52 102.77 747.52 101.72C747.52 100.67 746.65 99.8 745.6 99.8H732.16C731.11 99.8 730.24 100.67 730.24 101.72C730.24 102.77 731.11 103.64 732.16 103.64H736.96V117.08ZM759.514 112.28C759.994 112.28 760.504 112.1 760.864 111.71L766.234 106.34V117.08C766.234 118.13 767.104 119 768.154 119C769.204 119 770.074 118.13 770.074 117.08V101.72C770.074 100.67 769.204 99.8 768.154 99.8C767.644 99.8 767.194 99.98 766.804 100.37L759.514 107.66L752.224 100.37C751.834 99.98 751.384 99.8 750.874 99.8C749.824 99.8 748.954 100.67 748.954 101.72V117.08C748.954 118.13 749.824 119 750.874 119C751.924 119 752.794 118.13 752.794 117.08V106.34L758.164 111.71C758.524 112.1 759.034 112.28 759.514 112.28Z" fill="white"/>
</svg>
