<svg width="485" height="95" viewBox="0 0 485 95" fill="none" xmlns="http://www.w3.org/2000/svg">
<path d="M153.96 24.08C153.96 25.13 154.83 26 155.88 26C156.93 26 157.8 25.13 157.8 24.08V10.64H162.6C163.65 10.64 164.52 9.77 164.52 8.72C164.52 7.67 163.65 6.8 162.6 6.8H149.16C148.11 6.8 147.24 7.67 147.24 8.72C147.24 9.77 148.11 10.64 149.16 10.64H153.96V24.08ZM176.514 19.28C176.994 19.28 177.504 19.1 177.864 18.71L183.234 13.34V24.08C183.234 25.13 184.104 26 185.154 26C186.204 26 187.074 25.13 187.074 24.08V8.72C187.074 7.67 186.204 6.8 185.154 6.8C184.644 6.8 184.194 6.98 183.804 7.37L176.514 14.66L169.224 7.37C168.834 6.98 168.384 6.8 167.874 6.8C166.824 6.8 165.954 7.67 165.954 8.72V24.08C165.954 25.13 166.824 26 167.874 26C168.924 26 169.794 25.13 169.794 24.08V13.34L175.164 18.71C175.524 19.1 176.034 19.28 176.514 19.28Z" fill="#5386C2"/>
<path d="M1.36 46.8C1.36 61.845 13.515 74 28.56 74C43.605 74 55.76 61.845 55.76 46.8C55.76 31.755 43.605 19.6 28.56 19.6C13.515 19.6 1.36 31.755 1.36 46.8ZM12.24 46.8C12.24 37.705 19.465 30.48 28.56 30.48C37.655 30.48 44.88 37.705 44.88 46.8C44.88 55.895 37.655 63.12 28.56 63.12C19.465 63.12 12.24 55.895 12.24 46.8ZM59.8294 35.92C59.8294 38.385 61.2744 40.51 63.3994 41.53C61.4444 44.76 60.5094 48.33 60.5094 52.24V68.56C60.5094 71.535 62.9744 74 65.9494 74C68.9244 74 71.3894 71.535 71.3894 68.56V52.24C71.3894 46.205 76.2344 41.36 82.2694 41.36C88.3044 41.36 93.1494 46.205 93.1494 52.24V68.56C93.1494 71.535 95.6144 74 98.5894 74C101.564 74 104.029 71.535 104.029 68.56V52.24C104.029 40.255 94.2544 30.48 82.2694 30.48C78.2744 30.48 74.7894 31.585 71.4744 33.37C70.5394 31.245 68.4144 29.8 65.9494 29.8C62.5494 29.8 59.8294 32.52 59.8294 35.92ZM134.644 74C137.619 74 140.084 71.535 140.084 68.56C140.084 65.585 137.619 63.12 134.644 63.12H129.204C125.124 63.12 121.724 60.995 119.769 57.68H145.524C148.499 57.68 150.964 55.215 150.964 52.24C150.964 40.255 141.189 30.48 129.204 30.48C117.219 30.48 107.444 40.255 107.444 52.24C107.444 64.225 117.219 74 129.204 74H134.644ZM129.204 41.36C133.199 41.36 136.684 43.485 138.639 46.8H119.769C121.724 43.485 125.124 41.36 129.204 41.36Z" fill="url(#paint0_linear_6_10)"/>
<path d="M209.16 74C211.26 74 213 72.26 213 70.16C213 68.06 211.26 66.32 209.16 66.32H205.32C202.44 66.32 200.04 64.82 198.66 62.48H216.84C218.94 62.48 220.68 60.74 220.68 58.64C220.68 50.18 213.78 43.28 205.32 43.28C196.86 43.28 189.96 50.18 189.96 58.64C189.96 67.1 196.86 74 205.32 74H209.16ZM205.32 50.96C208.14 50.96 210.6 52.46 211.98 54.8H198.66C200.04 52.46 202.44 50.96 205.32 50.96ZM248.817 69.5C249.597 68.72 249.957 67.82 249.957 66.8C249.957 64.7 248.217 62.96 246.117 62.96C245.097 62.96 244.197 63.32 243.417 64.1C241.797 65.6 239.937 66.32 237.957 66.32C233.697 66.32 230.277 62.9 230.277 58.64C230.277 54.38 233.697 50.96 237.957 50.96C239.937 50.96 241.917 51.56 243.417 53.18C244.137 53.96 245.037 54.32 246.117 54.32C248.217 54.32 249.957 52.58 249.957 50.48C249.957 49.46 249.597 48.56 248.817 47.78C245.757 44.72 241.857 43.28 237.957 43.28C229.497 43.28 222.597 50.18 222.597 58.64C222.597 67.1 229.497 74 237.957 74C241.857 74 245.757 72.56 248.817 69.5ZM251.894 58.64C251.894 67.1 258.794 74 267.254 74C275.714 74 282.614 67.1 282.614 58.64C282.614 50.18 275.714 43.28 267.254 43.28C258.794 43.28 251.894 50.18 251.894 58.64ZM259.574 58.64C259.574 54.38 262.994 50.96 267.254 50.96C271.514 50.96 274.934 54.38 274.934 58.64C274.934 62.9 271.514 66.32 267.254 66.32C262.994 66.32 259.574 62.9 259.574 58.64ZM288.85 66.32C286.75 66.32 285.01 68.06 285.01 70.16C285.01 72.26 286.75 74 288.85 74H302.29C307.57 74 311.89 69.68 311.89 64.4C311.89 59.12 307.57 54.8 302.29 54.8H294.61C293.47 54.8 292.69 54.02 292.69 52.88C292.69 51.74 293.47 50.96 294.61 50.96H306.13C308.23 50.96 309.97 49.22 309.97 47.12C309.97 45.02 308.23 43.28 306.13 43.28H294.61C289.33 43.28 285.01 47.6 285.01 52.88C285.01 58.16 289.33 62.48 294.61 62.48H302.29C303.43 62.48 304.21 63.26 304.21 64.4C304.21 65.54 303.43 66.32 302.29 66.32H288.85ZM329.667 77.84C327.687 77.84 325.827 77.12 324.207 75.62C323.427 74.84 322.527 74.48 321.507 74.48C319.407 74.48 317.667 76.22 317.667 78.32C317.667 79.34 318.027 80.24 318.807 81.02C321.867 84.08 325.767 85.52 329.667 85.52C338.127 85.52 345.027 78.62 345.027 70.16V47.12C345.027 45.02 343.287 43.28 341.187 43.28C339.087 43.28 337.347 45.02 337.347 47.12V58.64C337.347 62.9 333.927 66.32 329.667 66.32C325.407 66.32 321.987 62.9 321.987 58.64V47.12C321.987 45.02 320.247 43.28 318.147 43.28C316.047 43.28 314.307 45.02 314.307 47.12V58.64C314.307 67.1 321.207 74 329.667 74C332.367 74 334.887 73.28 337.107 72.08C336.207 75.44 333.267 77.84 329.667 77.84ZM352.718 66.32C350.618 66.32 348.878 68.06 348.878 70.16C348.878 72.26 350.618 74 352.718 74H366.158C371.438 74 375.758 69.68 375.758 64.4C375.758 59.12 371.438 54.8 366.158 54.8H358.478C357.338 54.8 356.558 54.02 356.558 52.88C356.558 51.74 357.338 50.96 358.478 50.96H369.998C372.098 50.96 373.838 49.22 373.838 47.12C373.838 45.02 372.098 43.28 369.998 43.28H358.478C353.198 43.28 348.878 47.6 348.878 52.88C348.878 58.16 353.198 62.48 358.478 62.48H366.158C367.298 62.48 368.078 63.26 368.078 64.4C368.078 65.54 367.298 66.32 366.158 66.32H352.718ZM381.054 43.28C378.954 43.28 377.214 45.02 377.214 47.12C377.214 49.22 378.954 50.96 381.054 50.96H383.934V62.48C383.934 68.9 389.034 74 395.454 74H397.374C399.474 74 401.214 72.26 401.214 70.16C401.214 68.06 399.474 66.32 397.374 66.32H395.454C393.354 66.32 391.614 64.58 391.614 62.48V50.96H397.374C399.474 50.96 401.214 49.22 401.214 47.12C401.214 45.02 399.474 43.28 397.374 43.28H391.614V39.44C391.614 37.34 389.874 35.6 387.774 35.6C385.674 35.6 383.934 37.34 383.934 39.44V43.28H381.054ZM421.855 74C423.955 74 425.695 72.26 425.695 70.16C425.695 68.06 423.955 66.32 421.855 66.32H418.015C415.135 66.32 412.735 64.82 411.355 62.48H429.535C431.635 62.48 433.375 60.74 433.375 58.64C433.375 50.18 426.475 43.28 418.015 43.28C409.555 43.28 402.655 50.18 402.655 58.64C402.655 67.1 409.555 74 418.015 74H421.855ZM418.015 50.96C420.835 50.96 423.295 52.46 424.675 54.8H411.355C412.735 52.46 415.135 50.96 418.015 50.96ZM455.932 70.16C455.932 72.26 457.672 74 459.772 74C461.872 74 463.612 72.26 463.612 70.16V56.72C463.612 53.54 466.192 50.96 469.372 50.96C472.552 50.96 475.132 53.54 475.132 56.72V70.16C475.132 72.26 476.872 74 478.972 74C481.072 74 482.812 72.26 482.812 70.16V56.72C482.812 49.28 476.812 43.28 469.372 43.28C465.532 43.28 462.172 44.84 459.772 47.3C457.312 44.84 454.012 43.28 450.172 43.28C448.012 43.28 446.032 43.82 444.172 44.72C443.392 43.58 442.072 42.8 440.572 42.8C438.172 42.8 436.252 44.72 436.252 47.12C436.252 48.62 436.972 49.94 438.112 50.72C437.212 52.58 436.732 54.56 436.732 56.72V70.16C436.732 72.26 438.472 74 440.572 74C442.672 74 444.412 72.26 444.412 70.16V56.72C444.412 53.54 446.992 50.96 450.172 50.96C453.352 50.96 455.932 53.54 455.932 56.72V70.16Z" fill="#5386C2"/>
<defs>
<linearGradient id="paint0_linear_6_10" x1="76.5" y1="2" x2="76.5" y2="95" gradientUnits="userSpaceOnUse">
<stop offset="0.401042" stop-color="#1DA4C2"/>
<stop offset="0.682292" stop-color="#1B8250" stop-opacity="0.7"/>
</linearGradient>
</defs>
</svg>
