<svg width="273" height="103" viewBox="0 0 273 103" fill="none" xmlns="http://www.w3.org/2000/svg">
<path d="M237.96 24.08C237.96 25.13 238.83 26 239.88 26C240.93 26 241.8 25.13 241.8 24.08V10.64H246.6C247.65 10.64 248.52 9.77 248.52 8.72C248.52 7.67 247.65 6.8 246.6 6.8H233.16C232.11 6.8 231.24 7.67 231.24 8.72C231.24 9.77 232.11 10.64 233.16 10.64H237.96V24.08ZM260.514 19.28C260.994 19.28 261.504 19.1 261.864 18.71L267.234 13.34V24.08C267.234 25.13 268.104 26 269.154 26C270.204 26 271.074 25.13 271.074 24.08V8.72C271.074 7.67 270.204 6.8 269.154 6.8C268.644 6.8 268.194 6.98 267.804 7.37L260.514 14.66L253.224 7.37C252.834 6.98 252.384 6.8 251.874 6.8C250.824 6.8 249.954 7.67 249.954 8.72V24.08C249.954 25.13 250.824 26 251.874 26C252.924 26 253.794 25.13 253.794 24.08V13.34L259.164 18.71C259.524 19.1 260.034 19.28 260.514 19.28Z" fill="#5386C2"/>
<path d="M51 33.04C51 30.065 48.535 27.6 45.56 27.6C42.585 27.6 40.12 30.065 40.12 33.04V57.52C40.12 65 34 71.12 26.52 71.12C19.04 71.12 12.92 65 12.92 57.52V33.04C12.92 30.065 10.455 27.6 7.48 27.6C4.505 27.6 2.04 30.065 2.04 33.04V57.52C2.04 71.12 12.92 82 26.52 82C40.12 82 51 71.12 51 57.52V33.04ZM55.762 43.92C55.762 46.385 57.207 48.51 59.332 49.53C57.377 52.76 56.442 56.33 56.442 60.24V92.88C56.442 95.855 58.907 98.32 61.882 98.32C64.857 98.32 67.322 95.855 67.322 92.88V79.11C70.552 81.065 74.207 82 78.202 82C90.187 82 99.962 72.225 99.962 60.24C99.962 48.255 90.187 38.48 78.202 38.48C74.207 38.48 70.722 39.585 67.407 41.37C66.472 39.245 64.347 37.8 61.882 37.8C58.482 37.8 55.762 40.52 55.762 43.92ZM67.322 60.24C67.322 54.205 72.167 49.36 78.202 49.36C84.237 49.36 89.082 54.205 89.082 60.24C89.082 66.275 84.237 71.12 78.202 71.12C72.167 71.12 67.322 66.275 67.322 60.24Z" fill="#4195C4"/>
<path d="M108.833 71.12C105.858 71.12 103.393 73.585 103.393 76.56C103.393 79.535 105.858 82 108.833 82H136.033C145.128 82 152.353 74.775 152.353 65.68C152.353 56.585 145.128 49.36 136.033 49.36H119.713C116.738 49.36 114.273 46.895 114.273 43.92C114.273 40.945 116.738 38.48 119.713 38.48H144.193C147.168 38.48 149.633 36.015 149.633 33.04C149.633 30.065 147.168 27.6 144.193 27.6H119.713C110.618 27.6 103.393 34.825 103.393 43.92C103.393 53.015 110.618 60.24 119.713 60.24H136.033C139.008 60.24 141.473 62.705 141.473 65.68C141.473 68.655 139.008 71.12 136.033 71.12H108.833ZM181.626 82C184.601 82 187.066 79.535 187.066 76.56C187.066 73.585 184.601 71.12 181.626 71.12H176.186C172.106 71.12 168.706 68.995 166.751 65.68H192.506C195.481 65.68 197.946 63.215 197.946 60.24C197.946 48.255 188.171 38.48 176.186 38.48C164.201 38.48 154.426 48.255 154.426 60.24C154.426 72.225 164.201 82 176.186 82H181.626ZM176.186 49.36C180.181 49.36 183.666 51.485 185.621 54.8H166.751C168.706 51.485 172.106 49.36 176.186 49.36ZM202.022 43.92C202.022 46.385 203.467 48.51 205.592 49.53C203.637 52.76 202.702 56.33 202.702 60.24V76.56C202.702 79.535 205.167 82 208.142 82C211.117 82 213.582 79.535 213.582 76.56V60.24C213.582 54.205 218.427 49.36 224.462 49.36C227.437 49.36 229.902 46.895 229.902 43.92C229.902 40.945 227.437 38.48 224.462 38.48C220.467 38.48 216.982 39.585 213.667 41.37C212.732 39.245 210.607 37.8 208.142 37.8C204.742 37.8 202.022 40.52 202.022 43.92Z" fill="#29AC46"/>
</svg>
